<?xml version="1.0" standalone="no"?>
<!DOCTYPE svg PUBLIC "-//W3C//DTD SVG 20010904//EN"
 "http://www.w3.org/TR/2001/REC-SVG-20010904/DTD/svg10.dtd">
<svg version="1.0" xmlns="http://www.w3.org/2000/svg"
 width="151.000000pt" height="151.000000pt" viewBox="0 0 151.000000 151.000000"
 preserveAspectRatio="xMidYMid meet">
<metadata>
Created by potrace 1.11, written by Peter Selinger 2001-2013
</metadata>
<g transform="translate(0.000000,151.000000) scale(0.100000,-0.100000)"
fill="#000000" stroke="none">
<path d="M593 1259 c-108 -21 -164 -78 -167 -172 -1 -26 -5 -30 -35 -33 -19
-3 -38 -9 -42 -16 -9 -14 0 -40 18 -51 31 -19 33 -54 7 -139 -14 -46 -33 -108
-41 -138 -9 -31 -29 -69 -46 -87 -53 -56 -39 -63 131 -63 115 0 152 3 161 14
12 14 5 46 -10 46 -13 0 -11 34 5 77 8 21 29 88 47 148 17 61 33 111 34 113 2
2 20 5 41 8 46 6 64 19 64 50 0 27 -23 42 -65 39 -45 -2 -65 12 -65 45 0 40
18 76 44 88 20 9 21 7 18 -24 -6 -49 32 -84 93 -84 127 0 155 107 43 163 -40
20 -170 29 -235 16z"/>
<path d="M765 895 c-70 -18 -93 -47 -60 -75 8 -7 15 -19 15 -28 0 -8 -32 -121
-72 -251 -56 -183 -78 -241 -98 -259 -27 -26 -32 -43 -15 -54 12 -9 277 -11
299 -2 20 7 20 33 2 57 -21 27 12 124 40 118 11 -2 53 -4 94 -5 135 -2 228 64
275 197 51 144 21 272 -73 308 -60 23 -153 -1 -188 -49 -10 -14 -13 -13 -23 6
-26 48 -98 61 -196 37z m253 -152 c4 -30 -35 -173 -58 -211 -21 -35 -51 -54
-67 -44 -12 8 55 240 77 267 18 21 44 15 48 -12z"/>
</g>
</svg>
