<?xml version="1.0" encoding="utf-8"?>
<!-- Generator: Adobe Illustrator 19.0.0, SVG Export Plug-In . SVG Version: 6.00 Build 0)  -->
<svg version="1.1" id="Lager_1" xmlns="http://www.w3.org/2000/svg" xmlns:xlink="http://www.w3.org/1999/xlink" x="0px" y="0px"
	 viewBox="-564 822.3 1368.1 263.2" style="enable-background:new -564 822.3 1368.1 263.2;" xml:space="preserve">
<style type="text/css">
	.st0{fill:#202020;}
</style>
<circle id="XMLID_14_" class="st0" cx="-518.6" cy="724.6" r="45.4"/>
<circle id="XMLID_16_" class="st0" cx="-334.8" cy="724.6" r="45.4"/>
<circle id="XMLID_17_" class="st0" cx="-151.2" cy="724.6" r="45.4"/>
<circle id="XMLID_20_" class="st0" cx="-518.6" cy="908.4" r="45.4"/>
<circle id="XMLID_19_" class="st0" cx="-334.8" cy="908.4" r="45.4"/>
<circle id="XMLID_18_" class="st0" cx="-151.2" cy="908.4" r="45.4"/>
<circle id="XMLID_9_" class="st0" cx="41" cy="724.6" r="45.4"/>
<circle id="XMLID_8_" class="st0" cx="224.8" cy="724.6" r="45.4"/>
<circle id="XMLID_7_" class="st0" cx="408.4" cy="724.6" r="45.4"/>
<circle id="XMLID_6_" class="st0" cx="41" cy="908.4" r="45.4"/>
<circle id="XMLID_5_" class="st0" cx="224.8" cy="908.4" r="45.4"/>
<circle id="XMLID_4_" class="st0" cx="408.4" cy="908.4" r="45.4"/>
<g>
	<path d="M-537,1054.1c0,1.9-0.4,3.6-1.1,4.9c-0.7,1.3-1.7,2.4-2.9,3.2c-1.2,0.8-2.6,1.4-4.2,1.8c-1.6,0.4-3.2,0.6-4.9,0.6h-4v12.5
		h-8v-33h12.1c1.8,0,3.5,0.2,5.1,0.5c1.6,0.4,2.9,0.9,4.1,1.7c1.2,0.8,2.1,1.8,2.8,3.1S-537,1052.2-537,1054.1z M-544.9,1054.2
		c0-0.8-0.2-1.4-0.5-1.9c-0.3-0.5-0.7-0.9-1.3-1.2c-0.5-0.3-1.1-0.5-1.8-0.6c-0.7-0.1-1.4-0.1-2.1-0.1h-3.5v7.8h3.4
		c0.7,0,1.5-0.1,2.1-0.2c0.7-0.1,1.3-0.3,1.8-0.7c0.5-0.3,1-0.7,1.3-1.2C-545.1,1055.6-544.9,1055-544.9,1054.2z"/>
	<path d="M-497.7,1060.3c0,2.6-0.5,5-1.4,7.2c-0.9,2.2-2.2,4-3.8,5.5c-1.6,1.5-3.5,2.7-5.7,3.6c-2.2,0.8-4.6,1.3-7.2,1.3
		c-2.6,0-5-0.4-7.2-1.3c-2.2-0.8-4.1-2-5.7-3.6c-1.6-1.5-2.9-3.4-3.8-5.5c-0.9-2.2-1.4-4.5-1.4-7.2c0-2.6,0.5-5,1.4-7.2
		c0.9-2.1,2.2-3.9,3.8-5.4c1.6-1.5,3.5-2.6,5.7-3.5c2.2-0.8,4.6-1.2,7.2-1.2c2.6,0,5,0.4,7.2,1.2c2.2,0.8,4.1,2,5.7,3.5
		c1.6,1.5,2.9,3.3,3.8,5.4C-498.2,1055.3-497.7,1057.7-497.7,1060.3z M-506.3,1060.3c0-1.4-0.2-2.8-0.7-4c-0.5-1.2-1.1-2.3-1.9-3.2
		c-0.8-0.9-1.8-1.6-3-2.1c-1.2-0.5-2.4-0.8-3.8-0.8c-1.4,0-2.7,0.3-3.8,0.8c-1.2,0.5-2.1,1.2-3,2.1c-0.8,0.9-1.5,2-1.9,3.2
		c-0.5,1.2-0.7,2.6-0.7,4c0,1.5,0.2,2.9,0.7,4.1c0.5,1.3,1.1,2.3,1.9,3.2c0.8,0.9,1.8,1.6,3,2.1c1.1,0.5,2.4,0.8,3.8,0.8
		c1.4,0,2.7-0.3,3.8-0.8c1.1-0.5,2.1-1.2,3-2.1c0.8-0.9,1.5-2,2-3.2C-506.5,1063.2-506.3,1061.8-506.3,1060.3z"/>
	<path d="M-492.5,1077v-33h22.2v6.7h-14.5v6.2h13.7v6.4h-13.7v6.9h15.3v6.8H-492.5z"/>
	<path d="M-450,1050.8v26.2h-8v-26.2h-9.3v-6.8h26.6v6.8H-450z"/>
	<path d="M-437.1,1077v-33h8v33H-437.1z"/>
	<path d="M-398.6,1076.4c-2.1,1-4.6,1.5-7.4,1.5c-2.6,0-4.9-0.4-7.1-1.3c-2.2-0.8-4-2-5.6-3.6c-1.6-1.5-2.8-3.4-3.7-5.5
		c-0.9-2.1-1.4-4.5-1.4-7.1c0-2.6,0.5-5,1.4-7.2c0.9-2.1,2.2-4,3.8-5.5c1.6-1.5,3.5-2.7,5.7-3.5c2.2-0.8,4.5-1.2,7-1.2
		c2.3,0,4.6,0.4,6.9,1.2c2.3,0.8,4.1,2,5.5,3.6l-5.4,5.4c-0.7-1-1.7-1.8-2.9-2.3c-1.2-0.5-2.5-0.7-3.7-0.7c-1.4,0-2.7,0.3-3.8,0.8
		c-1.2,0.5-2.2,1.2-3,2.1c-0.8,0.9-1.5,2-2,3.2c-0.5,1.2-0.7,2.6-0.7,4c0,1.5,0.2,2.9,0.7,4.1c0.5,1.2,1.1,2.3,1.9,3.2
		c0.8,0.9,1.8,1.6,3,2.1c1.1,0.5,2.4,0.7,3.8,0.7c1.6,0,3-0.3,4.2-0.9c1.2-0.6,2.1-1.4,2.8-2.4l5.5,5.2
		C-394.6,1074.1-396.4,1075.4-398.6,1076.4z"/>
	<path d="M-366.7,1076.4c-2.1,1-4.6,1.5-7.4,1.5c-2.6,0-4.9-0.4-7.1-1.3c-2.2-0.8-4-2-5.6-3.6c-1.6-1.5-2.8-3.4-3.7-5.5
		c-0.9-2.1-1.4-4.5-1.4-7.1c0-2.6,0.5-5,1.4-7.2c0.9-2.1,2.2-4,3.8-5.5c1.6-1.5,3.5-2.7,5.7-3.5c2.2-0.8,4.5-1.2,7-1.2
		c2.3,0,4.6,0.4,6.9,1.2c2.3,0.8,4.1,2,5.5,3.6l-5.4,5.4c-0.7-1-1.7-1.8-2.9-2.3c-1.2-0.5-2.5-0.7-3.7-0.7c-1.4,0-2.7,0.3-3.8,0.8
		c-1.2,0.5-2.2,1.2-3,2.1c-0.8,0.9-1.5,2-2,3.2c-0.5,1.2-0.7,2.6-0.7,4c0,1.5,0.2,2.9,0.7,4.1c0.5,1.2,1.1,2.3,1.9,3.2
		c0.8,0.9,1.8,1.6,3,2.1c1.1,0.5,2.4,0.7,3.8,0.7c1.6,0,3-0.3,4.2-0.9c1.2-0.6,2.1-1.4,2.8-2.4l5.5,5.2
		C-362.7,1074.1-364.5,1075.4-366.7,1076.4z"/>
	<path d="M-324,1060.3c0,2.6-0.5,5-1.4,7.2c-0.9,2.2-2.2,4-3.8,5.5c-1.6,1.5-3.5,2.7-5.7,3.6c-2.2,0.8-4.6,1.3-7.2,1.3
		c-2.6,0-5-0.4-7.2-1.3c-2.2-0.8-4.1-2-5.7-3.6c-1.6-1.5-2.9-3.4-3.8-5.5c-0.9-2.2-1.4-4.5-1.4-7.2c0-2.6,0.5-5,1.4-7.2
		c0.9-2.1,2.2-3.9,3.8-5.4c1.6-1.5,3.5-2.6,5.7-3.5c2.2-0.8,4.6-1.2,7.2-1.2c2.6,0,5,0.4,7.2,1.2c2.2,0.8,4.1,2,5.7,3.5
		c1.6,1.5,2.9,3.3,3.8,5.4C-324.5,1055.3-324,1057.7-324,1060.3z M-332.5,1060.3c0-1.4-0.2-2.8-0.7-4c-0.5-1.2-1.1-2.3-1.9-3.2
		c-0.8-0.9-1.8-1.6-3-2.1c-1.2-0.5-2.4-0.8-3.8-0.8c-1.4,0-2.7,0.3-3.8,0.8c-1.2,0.5-2.1,1.2-3,2.1c-0.8,0.9-1.5,2-1.9,3.2
		c-0.5,1.2-0.7,2.6-0.7,4c0,1.5,0.2,2.9,0.7,4.1c0.5,1.3,1.1,2.3,1.9,3.2c0.8,0.9,1.8,1.6,3,2.1c1.1,0.5,2.4,0.8,3.8,0.8
		c1.4,0,2.7-0.3,3.8-0.8c1.1-0.5,2.1-1.2,3-2.1s1.5-2,2-3.2C-332.8,1063.2-332.5,1061.8-332.5,1060.3z"/>
	<path d="M-318.7,1077v-33h8v26.1h12.8v6.9H-318.7z"/>
	<path d="M-294.2,1077v-33h8v26.1h12.8v6.9H-294.2z"/>
	<path d="M-269.7,1077v-33h22.2v6.7H-262v6.2h13.7v6.4H-262v6.9h15.3v6.8H-269.7z"/>
	<path d="M-217.7,1076.4c-2.1,1-4.6,1.5-7.4,1.5c-2.6,0-4.9-0.4-7.1-1.3c-2.2-0.8-4-2-5.6-3.6c-1.6-1.5-2.8-3.4-3.7-5.5
		c-0.9-2.1-1.4-4.5-1.4-7.1c0-2.6,0.5-5,1.4-7.2c0.9-2.1,2.2-4,3.8-5.5c1.6-1.5,3.5-2.7,5.7-3.5c2.2-0.8,4.5-1.2,7-1.2
		c2.3,0,4.6,0.4,6.9,1.2c2.3,0.8,4.1,2,5.5,3.6l-5.4,5.4c-0.7-1-1.7-1.8-2.9-2.3c-1.2-0.5-2.5-0.7-3.7-0.7c-1.4,0-2.7,0.3-3.8,0.8
		c-1.2,0.5-2.2,1.2-3,2.1c-0.8,0.9-1.5,2-2,3.2s-0.7,2.6-0.7,4c0,1.5,0.2,2.9,0.7,4.1s1.1,2.3,1.9,3.2c0.8,0.9,1.8,1.6,3,2.1
		c1.1,0.5,2.4,0.7,3.8,0.7c1.6,0,3-0.3,4.1-0.9c1.2-0.6,2.1-1.4,2.8-2.4l5.5,5.2C-213.8,1074.1-215.6,1075.4-217.7,1076.4z"/>
	<path d="M-195.1,1050.8v26.2h-8v-26.2h-9.3v-6.8h26.6v6.8H-195.1z"/>
	<path d="M-182.1,1077v-33h8v33H-182.1z"/>
	<path d="M-150.9,1077h-8l-12.5-33h9l7.6,23.4h0.2l7.6-23.4h8.8L-150.9,1077z"/>
	<path d="M-135.5,1077v-33h22.2v6.7h-14.5v6.2h13.7v6.4h-13.7v6.9h15.3v6.8H-135.5z"/>
</g>
<g>
	<path d="M-79.7,1054.1c0,1.9-0.4,3.6-1.1,4.9c-0.7,1.3-1.7,2.4-2.9,3.2c-1.2,0.8-2.6,1.4-4.2,1.8c-1.6,0.4-3.2,0.6-4.9,0.6h-4v12.5
		h-8v-33h12.1c1.8,0,3.5,0.2,5.1,0.5c1.6,0.4,2.9,0.9,4.1,1.7c1.2,0.8,2.1,1.8,2.8,3.1C-80,1050.6-79.7,1052.2-79.7,1054.1z
		 M-87.7,1054.2c0-0.8-0.2-1.4-0.5-1.9c-0.3-0.5-0.7-0.9-1.3-1.2s-1.1-0.5-1.8-0.6c-0.7-0.1-1.4-0.1-2.1-0.1h-3.5v7.8h3.4
		c0.7,0,1.5-0.1,2.1-0.2c0.7-0.1,1.3-0.3,1.8-0.7c0.5-0.3,1-0.7,1.3-1.2C-87.8,1055.6-87.7,1055-87.7,1054.2z"/>
	<path d="M-40.5,1060.3c0,2.6-0.5,5-1.4,7.2c-0.9,2.2-2.2,4-3.8,5.5c-1.6,1.5-3.5,2.7-5.7,3.6c-2.2,0.8-4.6,1.3-7.2,1.3
		c-2.6,0-5-0.4-7.2-1.3c-2.2-0.8-4.1-2-5.7-3.6c-1.6-1.5-2.9-3.4-3.8-5.5c-0.9-2.2-1.4-4.5-1.4-7.2c0-2.6,0.5-5,1.4-7.2
		c0.9-2.1,2.2-3.9,3.8-5.4c1.6-1.5,3.5-2.6,5.7-3.5c2.2-0.8,4.6-1.2,7.2-1.2c2.6,0,5,0.4,7.2,1.2c2.2,0.8,4.1,2,5.7,3.5
		c1.6,1.5,2.9,3.3,3.8,5.4C-40.9,1055.3-40.5,1057.7-40.5,1060.3z M-49,1060.3c0-1.4-0.2-2.8-0.7-4c-0.5-1.2-1.1-2.3-1.9-3.2
		c-0.8-0.9-1.8-1.6-3-2.1c-1.2-0.5-2.4-0.8-3.8-0.8c-1.4,0-2.7,0.3-3.8,0.8c-1.2,0.5-2.1,1.2-3,2.1c-0.8,0.9-1.5,2-1.9,3.2
		c-0.5,1.2-0.7,2.6-0.7,4c0,1.5,0.2,2.9,0.7,4.1c0.5,1.3,1.1,2.3,1.9,3.2c0.8,0.9,1.8,1.6,3,2.1c1.1,0.5,2.4,0.8,3.8,0.8
		c1.4,0,2.7-0.3,3.8-0.8c1.1-0.5,2.1-1.2,3-2.1c0.8-0.9,1.5-2,2-3.2C-49.3,1063.2-49,1061.8-49,1060.3z"/>
	<path d="M-35.2,1077v-33H-13v6.7h-14.5v6.2h13.7v6.4h-13.7v6.9h15.3v6.8H-35.2z"/>
	<path d="M7.2,1050.8v26.2h-8v-26.2h-9.3v-6.8h26.6v6.8H7.2z"/>
	<path d="M20.2,1077v-33h8v33H20.2z"/>
	<path d="M58.7,1076.4c-2.1,1-4.6,1.5-7.4,1.5c-2.6,0-4.9-0.4-7.1-1.3c-2.2-0.8-4-2-5.6-3.6c-1.6-1.5-2.8-3.4-3.7-5.5
		c-0.9-2.1-1.4-4.5-1.4-7.1c0-2.6,0.5-5,1.4-7.2c0.9-2.1,2.2-4,3.8-5.5c1.6-1.5,3.5-2.7,5.7-3.5c2.2-0.8,4.5-1.2,7-1.2
		c2.3,0,4.6,0.4,6.9,1.2c2.3,0.8,4.1,2,5.5,3.6l-5.4,5.4c-0.7-1-1.7-1.8-2.9-2.3c-1.2-0.5-2.5-0.7-3.7-0.7c-1.4,0-2.7,0.3-3.8,0.8
		c-1.2,0.5-2.2,1.2-3,2.1c-0.8,0.9-1.5,2-2,3.2c-0.5,1.2-0.7,2.6-0.7,4c0,1.5,0.2,2.9,0.7,4.1c0.5,1.2,1.1,2.3,1.9,3.2
		c0.8,0.9,1.8,1.6,3,2.1c1.1,0.5,2.4,0.7,3.8,0.7c1.6,0,3-0.3,4.2-0.9c1.2-0.6,2.1-1.4,2.8-2.4l5.5,5.2
		C62.6,1074.1,60.8,1075.4,58.7,1076.4z"/>
	<path d="M90.6,1076.4c-2.1,1-4.6,1.5-7.4,1.5c-2.6,0-4.9-0.4-7.1-1.3c-2.2-0.8-4-2-5.6-3.6c-1.6-1.5-2.8-3.4-3.7-5.5
		c-0.9-2.1-1.4-4.5-1.4-7.1c0-2.6,0.5-5,1.4-7.2c0.9-2.1,2.2-4,3.8-5.5c1.6-1.5,3.5-2.7,5.7-3.5c2.2-0.8,4.5-1.2,7-1.2
		c2.3,0,4.6,0.4,6.9,1.2c2.3,0.8,4.1,2,5.5,3.6l-5.4,5.4c-0.7-1-1.7-1.8-2.9-2.3c-1.2-0.5-2.5-0.7-3.7-0.7c-1.4,0-2.7,0.3-3.8,0.8
		c-1.2,0.5-2.2,1.2-3,2.1c-0.8,0.9-1.5,2-2,3.2c-0.5,1.2-0.7,2.6-0.7,4c0,1.5,0.2,2.9,0.7,4.1c0.5,1.2,1.1,2.3,1.9,3.2
		c0.8,0.9,1.8,1.6,3,2.1c1.1,0.5,2.4,0.7,3.8,0.7c1.6,0,3-0.3,4.2-0.9c1.2-0.6,2.1-1.4,2.8-2.4l5.5,5.2
		C94.5,1074.1,92.7,1075.4,90.6,1076.4z"/>
	<path d="M133.2,1060.3c0,2.6-0.5,5-1.4,7.2c-0.9,2.2-2.2,4-3.8,5.5c-1.6,1.5-3.5,2.7-5.7,3.6c-2.2,0.8-4.6,1.3-7.2,1.3
		c-2.6,0-5-0.4-7.2-1.3c-2.2-0.8-4.1-2-5.7-3.6c-1.6-1.5-2.9-3.4-3.8-5.5c-0.9-2.2-1.4-4.5-1.4-7.2c0-2.6,0.5-5,1.4-7.2
		c0.9-2.1,2.2-3.9,3.8-5.4c1.6-1.5,3.5-2.6,5.7-3.5c2.2-0.8,4.6-1.2,7.2-1.2c2.6,0,5,0.4,7.2,1.2c2.2,0.8,4.1,2,5.7,3.5
		c1.6,1.5,2.9,3.3,3.8,5.4C132.8,1055.3,133.2,1057.7,133.2,1060.3z M124.7,1060.3c0-1.4-0.2-2.8-0.7-4c-0.5-1.2-1.1-2.3-1.9-3.2
		c-0.8-0.9-1.8-1.6-3-2.1c-1.2-0.5-2.4-0.8-3.8-0.8c-1.4,0-2.7,0.3-3.8,0.8c-1.2,0.5-2.1,1.2-3,2.1c-0.8,0.9-1.5,2-1.9,3.2
		c-0.5,1.2-0.7,2.6-0.7,4c0,1.5,0.2,2.9,0.7,4.1c0.5,1.3,1.1,2.3,1.9,3.2c0.8,0.9,1.8,1.6,3,2.1c1.1,0.5,2.4,0.8,3.8,0.8
		c1.4,0,2.7-0.3,3.8-0.8c1.1-0.5,2.1-1.2,3-2.1c0.8-0.9,1.5-2,2-3.2C124.5,1063.2,124.7,1061.8,124.7,1060.3z"/>
	<path d="M138.5,1077v-33h8v26.1h12.8v6.9H138.5z"/>
	<path d="M163,1077v-33h8v26.1h12.8v6.9H163z"/>
	<path d="M187.6,1077v-33h22.2v6.7h-14.5v6.2H209v6.4h-13.7v6.9h15.3v6.8H187.6z"/>
	<path d="M239.5,1076.4c-2.1,1-4.6,1.5-7.4,1.5c-2.6,0-4.9-0.4-7.1-1.3c-2.2-0.8-4-2-5.6-3.6c-1.6-1.5-2.8-3.4-3.7-5.5
		c-0.9-2.1-1.4-4.5-1.4-7.1c0-2.6,0.5-5,1.4-7.2c0.9-2.1,2.2-4,3.8-5.5c1.6-1.5,3.5-2.7,5.7-3.5c2.2-0.8,4.5-1.2,7-1.2
		c2.3,0,4.6,0.4,6.9,1.2c2.3,0.8,4.1,2,5.5,3.6l-5.4,5.4c-0.7-1-1.7-1.8-2.9-2.3c-1.2-0.5-2.5-0.7-3.7-0.7c-1.4,0-2.7,0.3-3.8,0.8
		c-1.2,0.5-2.2,1.2-3,2.1c-0.8,0.9-1.5,2-2,3.2c-0.5,1.2-0.7,2.6-0.7,4c0,1.5,0.2,2.9,0.7,4.1c0.5,1.2,1.1,2.3,1.9,3.2
		c0.8,0.9,1.8,1.6,3,2.1c1.1,0.5,2.4,0.7,3.8,0.7c1.6,0,3-0.3,4.1-0.9c1.2-0.6,2.1-1.4,2.8-2.4l5.5,5.2
		C243.5,1074.1,241.7,1075.4,239.5,1076.4z"/>
	<path d="M262.2,1050.8v26.2h-8v-26.2h-9.3v-6.8h26.6v6.8H262.2z"/>
	<path d="M275.2,1077v-33h8v33H275.2z"/>
	<path d="M306.4,1077h-8l-12.5-33h9l7.6,23.4h0.2l7.6-23.4h8.8L306.4,1077z"/>
	<path d="M321.8,1077v-33H344v6.7h-14.5v6.2h13.7v6.4h-13.7v6.9h15.3v6.8H321.8z"/>
</g>
<g>
	<path d="M377.6,1054.1c0,1.9-0.4,3.6-1.1,4.9c-0.7,1.3-1.7,2.4-2.9,3.2c-1.2,0.8-2.6,1.4-4.2,1.8c-1.6,0.4-3.2,0.6-4.9,0.6h-4v12.5
		h-8v-33h12.1c1.8,0,3.5,0.2,5.1,0.5c1.6,0.4,2.9,0.9,4.1,1.7c1.2,0.8,2.1,1.8,2.8,3.1C377.2,1050.6,377.6,1052.2,377.6,1054.1z
		 M369.6,1054.2c0-0.8-0.2-1.4-0.5-1.9c-0.3-0.5-0.7-0.9-1.3-1.2c-0.5-0.3-1.1-0.5-1.8-0.6c-0.7-0.1-1.4-0.1-2.1-0.1h-3.5v7.8h3.4
		c0.7,0,1.5-0.1,2.1-0.2c0.7-0.1,1.3-0.3,1.8-0.7c0.5-0.3,1-0.7,1.3-1.2C369.4,1055.6,369.6,1055,369.6,1054.2z"/>
	<path d="M416.8,1060.3c0,2.6-0.5,5-1.4,7.2c-0.9,2.2-2.2,4-3.8,5.5c-1.6,1.5-3.5,2.7-5.7,3.6c-2.2,0.8-4.6,1.3-7.2,1.3
		c-2.6,0-5-0.4-7.2-1.3c-2.2-0.8-4.1-2-5.7-3.6c-1.6-1.5-2.9-3.4-3.8-5.5c-0.9-2.2-1.4-4.5-1.4-7.2c0-2.6,0.5-5,1.4-7.2
		c0.9-2.1,2.2-3.9,3.8-5.4c1.6-1.5,3.5-2.6,5.7-3.5c2.2-0.8,4.6-1.2,7.2-1.2c2.6,0,5,0.4,7.2,1.2c2.2,0.8,4.1,2,5.7,3.5
		c1.6,1.5,2.9,3.3,3.8,5.4C416.3,1055.3,416.8,1057.7,416.8,1060.3z M408.3,1060.3c0-1.4-0.2-2.8-0.7-4c-0.5-1.2-1.1-2.3-1.9-3.2
		c-0.8-0.9-1.8-1.6-3-2.1c-1.2-0.5-2.4-0.8-3.8-0.8c-1.4,0-2.7,0.3-3.8,0.8c-1.2,0.5-2.1,1.2-3,2.1c-0.8,0.9-1.5,2-1.9,3.2
		c-0.5,1.2-0.7,2.6-0.7,4c0,1.5,0.2,2.9,0.7,4.1c0.5,1.3,1.1,2.3,1.9,3.2c0.8,0.9,1.8,1.6,3,2.1c1.1,0.5,2.4,0.8,3.8,0.8
		c1.4,0,2.7-0.3,3.8-0.8c1.1-0.5,2.1-1.2,3-2.1c0.8-0.9,1.5-2,2-3.2C408,1063.2,408.3,1061.8,408.3,1060.3z"/>
	<path d="M422.1,1077v-33h22.2v6.7h-14.5v6.2h13.7v6.4h-13.7v6.9h15.3v6.8H422.1z"/>
	<path d="M464.5,1050.8v26.2h-8v-26.2h-9.3v-6.8h26.6v6.8H464.5z"/>
	<path d="M477.5,1077v-33h8v33H477.5z"/>
	<path d="M515.9,1076.4c-2.1,1-4.6,1.5-7.4,1.5c-2.6,0-4.9-0.4-7.1-1.3c-2.2-0.8-4-2-5.6-3.6c-1.6-1.5-2.8-3.4-3.7-5.5
		c-0.9-2.1-1.4-4.5-1.4-7.1c0-2.6,0.5-5,1.4-7.2c0.9-2.1,2.2-4,3.8-5.5c1.6-1.5,3.5-2.7,5.7-3.5c2.2-0.8,4.5-1.2,7-1.2
		c2.3,0,4.6,0.4,6.9,1.2c2.3,0.8,4.1,2,5.5,3.6l-5.4,5.4c-0.7-1-1.7-1.8-2.9-2.3c-1.2-0.5-2.5-0.7-3.7-0.7c-1.4,0-2.7,0.3-3.8,0.8
		c-1.2,0.5-2.2,1.2-3,2.1c-0.8,0.9-1.5,2-2,3.2c-0.5,1.2-0.7,2.6-0.7,4c0,1.5,0.2,2.9,0.7,4.1c0.5,1.2,1.1,2.3,1.9,3.2
		c0.8,0.9,1.8,1.6,3,2.1c1.1,0.5,2.4,0.7,3.8,0.7c1.6,0,3-0.3,4.2-0.9c1.2-0.6,2.1-1.4,2.8-2.4l5.5,5.2
		C519.9,1074.1,518.1,1075.4,515.9,1076.4z"/>
	<path d="M547.8,1076.4c-2.1,1-4.6,1.5-7.4,1.5c-2.6,0-4.9-0.4-7.1-1.3c-2.2-0.8-4-2-5.6-3.6c-1.6-1.5-2.8-3.4-3.7-5.5
		c-0.9-2.1-1.4-4.5-1.4-7.1c0-2.6,0.5-5,1.4-7.2c0.9-2.1,2.2-4,3.8-5.5c1.6-1.5,3.5-2.7,5.7-3.5c2.2-0.8,4.5-1.2,7-1.2
		c2.3,0,4.6,0.4,6.9,1.2c2.3,0.8,4.1,2,5.5,3.6l-5.4,5.4c-0.7-1-1.7-1.8-2.9-2.3c-1.2-0.5-2.5-0.7-3.7-0.7c-1.4,0-2.7,0.3-3.8,0.8
		c-1.2,0.5-2.2,1.2-3,2.1c-0.8,0.9-1.5,2-2,3.2c-0.5,1.2-0.7,2.6-0.7,4c0,1.5,0.2,2.9,0.7,4.1c0.5,1.2,1.1,2.3,1.9,3.2
		c0.8,0.9,1.8,1.6,3,2.1c1.1,0.5,2.4,0.7,3.8,0.7c1.6,0,3-0.3,4.2-0.9c1.2-0.6,2.1-1.4,2.8-2.4l5.5,5.2
		C551.8,1074.1,550,1075.4,547.8,1076.4z"/>
	<path d="M590.5,1060.3c0,2.6-0.5,5-1.4,7.2c-0.9,2.2-2.2,4-3.8,5.5c-1.6,1.5-3.5,2.7-5.7,3.6c-2.2,0.8-4.6,1.3-7.2,1.3
		c-2.6,0-5-0.4-7.2-1.3c-2.2-0.8-4.1-2-5.7-3.6c-1.6-1.5-2.9-3.4-3.8-5.5c-0.9-2.2-1.4-4.5-1.4-7.2c0-2.6,0.5-5,1.4-7.2
		c0.9-2.1,2.2-3.9,3.8-5.4c1.6-1.5,3.5-2.6,5.7-3.5c2.2-0.8,4.6-1.2,7.2-1.2c2.6,0,5,0.4,7.2,1.2c2.2,0.8,4.1,2,5.7,3.5
		c1.6,1.5,2.9,3.3,3.8,5.4C590.1,1055.3,590.5,1057.7,590.5,1060.3z M582,1060.3c0-1.4-0.2-2.8-0.7-4c-0.5-1.2-1.1-2.3-1.9-3.2
		c-0.8-0.9-1.8-1.6-3-2.1c-1.2-0.5-2.4-0.8-3.8-0.8c-1.4,0-2.7,0.3-3.8,0.8c-1.2,0.5-2.1,1.2-3,2.1c-0.8,0.9-1.5,2-1.9,3.2
		c-0.5,1.2-0.7,2.6-0.7,4c0,1.5,0.2,2.9,0.7,4.1c0.5,1.3,1.1,2.3,1.9,3.2c0.8,0.9,1.8,1.6,3,2.1c1.1,0.5,2.4,0.8,3.8,0.8
		c1.4,0,2.7-0.3,3.8-0.8c1.1-0.5,2.1-1.2,3-2.1s1.5-2,2-3.2C581.8,1063.2,582,1061.8,582,1060.3z"/>
	<path d="M595.8,1077v-33h8v26.1h12.8v6.9H595.8z"/>
	<path d="M620.3,1077v-33h8v26.1h12.8v6.9H620.3z"/>
	<path d="M644.9,1077v-33H667v6.7h-14.5v6.2h13.7v6.4h-13.7v6.9h15.3v6.8H644.9z"/>
	<path d="M696.8,1076.4c-2.1,1-4.6,1.5-7.4,1.5c-2.6,0-4.9-0.4-7.1-1.3c-2.2-0.8-4-2-5.6-3.6c-1.6-1.5-2.8-3.4-3.7-5.5
		c-0.9-2.1-1.4-4.5-1.4-7.1c0-2.6,0.5-5,1.4-7.2c0.9-2.1,2.2-4,3.8-5.5c1.6-1.5,3.5-2.7,5.7-3.5c2.2-0.8,4.5-1.2,7-1.2
		c2.3,0,4.6,0.4,6.9,1.2c2.3,0.8,4.1,2,5.5,3.6l-5.4,5.4c-0.7-1-1.7-1.8-2.9-2.3c-1.2-0.5-2.5-0.7-3.7-0.7c-1.4,0-2.7,0.3-3.8,0.8
		c-1.2,0.5-2.2,1.2-3,2.1c-0.8,0.9-1.5,2-2,3.2c-0.5,1.2-0.7,2.6-0.7,4c0,1.5,0.2,2.9,0.7,4.1c0.5,1.2,1.1,2.3,1.9,3.2
		c0.8,0.9,1.8,1.6,3,2.1c1.1,0.5,2.4,0.7,3.8,0.7c1.6,0,3-0.3,4.1-0.9c1.2-0.6,2.1-1.4,2.8-2.4l5.5,5.2
		C700.8,1074.1,699,1075.4,696.8,1076.4z"/>
	<path d="M719.5,1050.8v26.2h-8v-26.2h-9.3v-6.8h26.6v6.8H719.5z"/>
	<path d="M732.4,1077v-33h8v33H732.4z"/>
	<path d="M763.6,1077h-8l-12.5-33h9l7.6,23.4h0.2l7.6-23.4h8.8L763.6,1077z"/>
	<path d="M779.1,1077v-33h22.2v6.7h-14.5v6.2h13.7v6.4h-13.7v6.9h15.3v6.8H779.1z"/>
</g>
</svg>
