<?xml version="1.0" encoding="utf-8"?>
<!-- Generator: Adobe Illustrator 19.0.0, SVG Export Plug-In . SVG Version: 6.00 Build 0)  -->
<svg version="1.1" xmlns="http://www.w3.org/2000/svg" xmlns:xlink="http://www.w3.org/1999/xlink" x="0px" y="0px"
	 viewBox="0 0 258.7 178.4" style="enable-background:new 0 0 258.7 178.4;" xml:space="preserve">
<style type="text/css">
	.st0{fill:#884995;}
	.st1{fill:#F3E600;}
	.st2{fill:#2F529F;}
	.st3{fill:#E73769;}
	.st4{fill:#71BFA2;}
	.st5{display:none;fill:none;stroke:#333333;stroke-miterlimit:10;}
</style>
<g id="Lager_1">
	<g id="XMLID_2_">
		<g id="XMLID_20_">
			<path id="XMLID_24_" class="st0" d="M126.2,69.8c3.2,0,3.2-5,0-5C123,64.8,123,69.8,126.2,69.8L126.2,69.8z"/>
		</g>
	</g>
	<g id="XMLID_4_">
		<g id="XMLID_34_">
			<path id="XMLID_38_" class="st0" d="M213.4,110.8c3.2,0,3.2-5,0-5C210.2,105.8,210.2,110.8,213.4,110.8L213.4,110.8z"/>
		</g>
	</g>
	<g id="XMLID_5_">
		<g id="XMLID_41_">
			<path id="XMLID_45_" class="st0" d="M174,28.7c3.2,0,3.2-5,0-5C170.8,23.7,170.8,28.7,174,28.7L174,28.7z"/>
		</g>
	</g>
	<g id="XMLID_6_">
		<g id="XMLID_48_">
			<path id="XMLID_52_" class="st0" d="M96,131.8c3.2,0,3.2-5,0-5C92.8,126.8,92.8,131.8,96,131.8L96,131.8z"/>
		</g>
	</g>
	<g id="XMLID_7_">
		<g id="XMLID_55_">
			<path id="XMLID_59_" class="st1" d="M127,13.6c3.2,0,3.2-5,0-5C123.8,8.6,123.8,13.6,127,13.6L127,13.6z"/>
		</g>
	</g>
	<g id="XMLID_9_">
		<g id="XMLID_62_">
			<path id="XMLID_66_" class="st1" d="M86.8,62.2c3.2,0,3.2-5,0-5C83.6,57.2,83.6,62.2,86.8,62.2L86.8,62.2z"/>
		</g>
	</g>
	<g id="XMLID_11_">
		<g id="XMLID_69_">
			<path id="XMLID_73_" class="st1" d="M163.9,129.3c3.2,0,3.2-5,0-5C160.7,124.3,160.7,129.3,163.9,129.3L163.9,129.3z"/>
		</g>
	</g>
	<g id="XMLID_18_">
		<g id="XMLID_76_">
			<path id="XMLID_80_" class="st1" d="M223.5,58.9c3.2,0,3.2-5,0-5C220.2,53.9,220.2,58.9,223.5,58.9L223.5,58.9z"/>
		</g>
	</g>
	<g id="XMLID_25_">
		<g id="XMLID_83_">
			<path id="XMLID_87_" class="st1" d="M49.9,13.6c3.2,0,3.2-5,0-5C46.7,8.6,46.7,13.6,49.9,13.6L49.9,13.6z"/>
		</g>
	</g>
	<g id="XMLID_32_">
		<g id="XMLID_90_">
			<path id="XMLID_94_" class="st1" d="M54.1,115.9c3.2,0,3.2-5,0-5C50.9,110.9,50.9,115.9,54.1,115.9L54.1,115.9z"/>
		</g>
	</g>
	<g id="XMLID_39_">
		<g id="XMLID_97_">
			<path id="XMLID_101_" class="st2" d="M255.3,118.7c3.2,0,3.2-5,0-5C252.1,113.7,252.1,118.7,255.3,118.7L255.3,118.7z"/>
		</g>
	</g>
	<g id="XMLID_46_">
		<g id="XMLID_104_">
			<path id="XMLID_108_" class="st2" d="M151.4,97.4c3.2,0,3.2-5,0-5C148.1,92.4,148.1,97.4,151.4,97.4L151.4,97.4z"/>
		</g>
	</g>
	<g id="XMLID_53_">
		<g id="XMLID_111_">
			<path id="XMLID_115_" class="st2" d="M52.4,48c3.2,0,3.2-5,0-5C49.2,43,49.2,48,52.4,48L52.4,48z"/>
		</g>
	</g>
	<g id="XMLID_67_">
		<g id="XMLID_125_">
			<path id="XMLID_129_" class="st2" d="M184.1,58.9c3.2,0,3.2-5,0-5C180.8,53.9,180.8,58.9,184.1,58.9L184.1,58.9z"/>
		</g>
	</g>
	<g id="XMLID_74_">
		<g id="XMLID_132_">
			<path id="XMLID_136_" class="st2" d="M8,40.4c3.2,0,3.2-5,0-5C4.8,35.4,4.8,40.4,8,40.4L8,40.4z"/>
		</g>
	</g>
	<g id="XMLID_81_">
		<g id="XMLID_139_">
			<path id="XMLID_143_" class="st3" d="M52.4,139.3c3.2,0,3.2-5,0-5C49.2,134.3,49.2,139.3,52.4,139.3L52.4,139.3z"/>
		</g>
	</g>
	<g id="XMLID_88_">
		<g id="XMLID_146_">
			<path id="XMLID_150_" class="st3" d="M128.7,175.4c3.2,0,3.2-5,0-5C125.5,170.4,125.5,175.4,128.7,175.4L128.7,175.4z"/>
		</g>
	</g>
	<g id="XMLID_95_">
		<g id="XMLID_153_">
			<path id="XMLID_157_" class="st3" d="M87.6,23.7c3.2,0,3.2-5,0-5C84.4,18.7,84.4,23.7,87.6,23.7L87.6,23.7z"/>
		</g>
	</g>
	<g id="XMLID_109_">
		<g id="XMLID_167_">
			<path id="XMLID_171_" class="st3" d="M236.9,155.3c3.2,0,3.2-5,0-5C233.6,150.3,233.6,155.3,236.9,155.3L236.9,155.3z"/>
		</g>
	</g>
	<g id="XMLID_116_">
		<g id="XMLID_174_">
			<path id="XMLID_178_" class="st3" d="M77.6,87.4c3.2,0,3.2-5,0-5C74.4,82.4,74.4,87.4,77.6,87.4L77.6,87.4z"/>
		</g>
	</g>
	<g id="XMLID_123_">
		<g id="XMLID_181_">
			<path id="XMLID_185_" class="st3" d="M161.4,63.9c3.2,0,3.2-5,0-5C158.2,58.9,158.2,63.9,161.4,63.9L161.4,63.9z"/>
		</g>
	</g>
	<g id="XMLID_130_">
		<g id="XMLID_188_">
			<path id="XMLID_192_" class="st4" d="M26.4,111.7c3.2,0,3.2-5,0-5C23.2,106.7,23.2,111.7,26.4,111.7L26.4,111.7z"/>
		</g>
	</g>
	<g id="XMLID_137_">
		<g id="XMLID_195_">
			<path id="XMLID_199_" class="st4" d="M23.1,20.3c3.2,0,3.2-5,0-5C19.9,15.3,19.9,20.3,23.1,20.3L23.1,20.3z"/>
		</g>
	</g>
	<g id="XMLID_144_">
		<g id="XMLID_202_">
			<path id="XMLID_206_" class="st4" d="M216.7,33.7c3.2,0,3.2-5,0-5C213.5,28.7,213.5,33.7,216.7,33.7L216.7,33.7z"/>
		</g>
	</g>
	<g id="XMLID_151_">
		<g id="XMLID_209_">
			<path id="XMLID_213_" class="st4" d="M188.2,142.7c3.2,0,3.2-5,0-5C185,137.7,185,142.7,188.2,142.7L188.2,142.7z"/>
		</g>
	</g>
	<g id="XMLID_158_">
		<g id="XMLID_216_">
			<path id="XMLID_220_" class="st4" d="M124.5,105c3.2,0,3.2-5,0-5C121.3,100,121.3,105,124.5,105L124.5,105z"/>
		</g>
	</g>
	<g id="XMLID_165_">
		<g id="XMLID_223_">
			<path id="XMLID_227_" class="st4" d="M282.1,67.3c3.2,0,3.2-5,0-5C278.9,62.3,278.9,67.3,282.1,67.3L282.1,67.3z"/>
		</g>
	</g>
	<g id="XMLID_172_">
		<g id="XMLID_230_">
			<path id="XMLID_234_" class="st4" d="M205,79c3.2,0,3.2-5,0-5C201.8,74,201.8,79,205,79L205,79z"/>
		</g>
	</g>
	<g id="XMLID_179_">
		<g id="XMLID_237_">
			<path id="XMLID_241_" class="st4" d="M248.6,89.9c3.2,0,3.2-5,0-5C245.4,84.9,245.4,89.9,248.6,89.9L248.6,89.9z"/>
		</g>
	</g>
	<g id="XMLID_193_">
		<g id="XMLID_236_">
			<path id="XMLID_252_" class="st4" d="M234.4,39.2c0.1,1.5,1.1,2.6,2.6,3c0.3,0.1,0.6,0.1,0.9,0.2c0.1,0,0.3,0.1,0.4,0.1
				c0.3,0.1-0.6-0.3-0.4-0.1c-0.7-0.4-1-1-1-1.8c0.1,1.3,1.1,2.6,2.5,2.5c1.3-0.1,2.6-1.1,2.5-2.5c-0.1-1.5-1.1-2.6-2.6-3
				c-0.3-0.1-0.6-0.1-0.9-0.2c-0.1,0-0.3-0.1-0.4-0.1c-0.3-0.1,0.6,0.3,0.4,0.1c0.7,0.4,1,1,1,1.8c-0.1-1.3-1.1-2.6-2.5-2.5
				C235.6,36.7,234.3,37.8,234.4,39.2L234.4,39.2z"/>
		</g>
	</g>
	<g id="XMLID_279_">
		<g id="XMLID_317_">
			<path id="XMLID_321_" class="st3" d="M31.8,58.9c3.2,0,3.2-5,0-5C28.6,53.9,28.6,58.9,31.8,58.9L31.8,58.9z"/>
		</g>
	</g>
	<rect id="XMLID_1_" class="st5" width="258.7" height="178.4"/>
	<g id="XMLID_8_">
		<g id="XMLID_121_">
			<path id="XMLID_161_" class="st2" d="M19.4,91.7c3.2,0,3.2-5,0-5C16.1,86.7,16.1,91.7,19.4,91.7L19.4,91.7z"/>
		</g>
	</g>
	<g id="XMLID_13_">
		<g id="XMLID_164_">
			<path id="XMLID_229_" class="st2" d="M14.5,158.1c3.2,0,3.2-5,0-5C11.3,153.1,11.3,158.1,14.5,158.1L14.5,158.1z"/>
		</g>
	</g>
	<g id="XMLID_14_">
		<g id="XMLID_246_">
			<path id="XMLID_264_" class="st2" d="M138.3,145c3.2,0,3.2-5,0-5C135.1,140,135.1,145,138.3,145L138.3,145z"/>
		</g>
	</g>
	<g id="XMLID_15_">
		<g id="XMLID_274_">
			<path id="XMLID_284_" class="st1" d="M43.6,169.2c3.2,0,3.2-5,0-5C40.4,164.2,40.3,169.2,43.6,169.2L43.6,169.2z"/>
		</g>
	</g>
	<g id="XMLID_16_">
		<g id="XMLID_287_">
			<path id="XMLID_291_" class="st1" d="M217.2,156c3.2,0,3.2-5,0-5C214,151,213.9,156,217.2,156L217.2,156z"/>
		</g>
	</g>
	<g id="XMLID_3_">
		<g id="XMLID_268_">
			<path id="XMLID_285_" class="st0" d="M182.6,173.3c3.2,0,3.2-5,0-5C179.4,168.3,179.4,173.3,182.6,173.3L182.6,173.3z"/>
		</g>
	</g>
	<g id="XMLID_12_">
		<g id="XMLID_294_">
			<path id="XMLID_322_" class="st0" d="M103.1,84.8c3.2,0,3.2-5,0-5C99.8,79.8,99.8,84.8,103.1,84.8L103.1,84.8z"/>
		</g>
	</g>
	<g id="XMLID_17_">
		<g id="XMLID_325_">
			<path id="XMLID_329_" class="st3" d="M244.1,19.1c3.2,0,3.2-5,0-5C240.9,14.1,240.9,19.1,244.1,19.1L244.1,19.1z"/>
		</g>
	</g>
	<g id="XMLID_27_">
		<g id="XMLID_332_">
			<path id="XMLID_336_" class="st3" d="M163.2,6.6c3.2,0,3.2-5,0-5C160,1.6,160,6.6,163.2,6.6L163.2,6.6z"/>
		</g>
	</g>
	<g id="XMLID_28_">
		<g id="XMLID_339_">
			<path id="XMLID_343_" class="st3" d="M186,104.9c3.2,0,3.2-5,0-5C182.8,99.9,182.8,104.9,186,104.9L186,104.9z"/>
		</g>
	</g>
	<g id="XMLID_29_">
		<g id="XMLID_346_">
			<path id="XMLID_350_" class="st2" d="M77.5,155.3c3.2,0,3.2-5,0-5C74.2,150.3,74.2,155.3,77.5,155.3L77.5,155.3z"/>
		</g>
	</g>
</g>
<g id="Lager_2">
</g>
</svg>
